<?xml version="1.0" encoding="UTF-8"?>
<svg viewBox="0 0 32 32" xmlns="http://www.w3.org/2000/svg">
  <!-- Background Circle -->
  <circle cx="16" cy="16" r="15" fill="#ED1B24" stroke="#000000" stroke-width="1" />
  
  <!-- Letter M -->
  <path d="M8.5,8 L8.5,24 L11.5,24 L11.5,14 L14.5,20 L17.5,14 L17.5,24 L20.5,24 L20.5,8 L17.5,8 L14.5,16 L11.5,8 Z" 
        fill="#FFFFFF" stroke="#000000" stroke-width="0.5" />
  
  <!-- Pound Sign (£) Accent -->
  <path d="M23.5,11 C22.7,11 22,11.7 22,12.5 L22,14 L21,14 L21,15 L22,15 L22,17 L21,17 L21,18 L22,18 L22,18.5 C22,18.5 22,18.5 22,18.5 L25,18.5 L25,17 L23.5,17 L23.5,15 L25,15 L25,14 L23.5,14 L23.5,12.5 C23.5,12.5 23.5,12.5 23.5,12.5 L25,12.5 L25,11 L23.5,11 Z" 
        fill="#85BB65" stroke="#000000" stroke-width="0.3" />
</svg>